# xmcd
#
# Track frame offsets:
# 150
# 22095
# 40324
# 56781
# 66864
# 83326
# 95033
# 107252
# 128941
# 142488
# 157843
# 177661
# 190549
# 201411
# 219587
#
# Disc length: 3239 seconds
#
# Revision: 0
# Processed by: cddbd v1.5.1PL0 Copyright (c) Steve Scherf et al.
# Submitted via: Audion 3.0.2 (http://www.panic.com/audion/)
#
DISCID=dc0ca50f
DTITLE=verzamel - don't worry be happy
DYEAR=1900
DGENRE=
TTITLE0=Don't worry be happy
TTITLE1=walkin' on sunshine
TTITLE2=No worries
TTITLE3=Lump
TTITLE4=Space Cowboy
TTITLE5=Johnny be good
TTITLE6=Drive my car
TTITLE7=Loco
TTITLE8=Brown derby jump
TTITLE9=That's the way
TTITLE10=Every little thing
TTITLE11=Peaches
TTITLE12=Chantilly lce
TTITLE13=My old piano
TTITLE14=Groove is in the heart
EXTD=
EXTT0=
EXTT1=
EXTT2=
EXTT3=
EXTT4=
EXTT5=
EXTT6=
EXTT7=
EXTT8=
EXTT9=
EXTT10=
EXTT11=
EXTT12=
EXTT13=
EXTT14=
PLAYORDER=
